# xmcd
#
# Track frame offsets:
# 150
# 15429
# 31808
# 41425
# 54396
# 75750
# 93038
# 105180
# 111667
# 121935
# 131068
# 137218
# 148919
# 166202
# 180816
# 197231
# 213414
# 225120
#
# Disc length: 3231 seconds
#
#
# Revision: 0
# Processed by: cddbd v1.5.2PL0 Copyright (c) Steve Scherf et al.
# Submitted via: FreeRIP 2.951 
#
DISCID=da0c9d12
DTITLE=Cash - The Great Lost Performance
DYEAR=1997
DGENRE=Country
TTITLE0=Ring of Fire
TTITLE1=Life's Railway to Heaven
TTITLE2=A Wonderful Time Up There
TTITLE3=Folsom Prison Blues
TTITLE4=Sunday Morning Coming Down
TTITLE5=What Is Man
TTITLE6=Forty Shades of Green
TTITLE7=Come Along and Ride This Train
TTITLE8=Five Feet High and Rising
TTITLE9=Pickin' Time
TTITLE10=A Beautiful Day
TTITLE11=Hey Porter
TTITLE12=Ragged Old Flag
TTITLE13=Tennessee Flat Top Box
TTITLE14=Ghost Rider in the Sky
TTITLE15=Jackson
TTITLE16=The Wreck of the Old '97
TTITLE17=I Walk the Line
EXTD=
EXTT0=
EXTT1=
EXTT2=
EXTT3=
EXTT4=
EXTT5=
EXTT6=
EXTT7=
EXTT8=
EXTT9=
EXTT10=
EXTT11=
EXTT12=
EXTT13=
EXTT14=
EXTT15=
EXTT16=
EXTT17=
PLAYORDER=
